<svg xmlns="http://www.w3.org/2000/svg" width="1847" height="2524" style="shape-rendering:geometricPrecision;text-rendering:geometricPrecision;image-rendering:optimizeQuality;fill-rule:evenodd;clip-rule:evenodd"><path fill="#fa7d00" d="M1846.5 1199.5v676c-10 107.52-57.67 194.02-143 259.5a515 515 0 0 1-32 21c-193.33 108.67-386.67 217.33-580 326-47.2 24.35-97.204 38.19-150 41.5h-36c-55.159-3.33-107.159-18.16-156-44.5-187.333-105.33-374.667-210.67-562-316q-172.143-97.44-188-295.5v-1652q13.263-81.757 89-115.5 54.718-21.383 109 1a35047 35047 0 0 1 223 114q69.785 39.75 75.5 120.5l1 404A12768 12768 0 0 1 777.5 583q152.096-63.19 302 5a132235 132235 0 0 1 602 338q147.765 96.696 165 273.5" style="opacity:1"/><path fill="#fa9b3c" d="M1349.5 1381.5c-.65 104.49-1.31 208.82-2 313 .32-106.69-.01-213.36-1-320 .21-3-.46-5.66-2-8v-1c-.24-3.98-1.24-7.65-3-11-.67-3-1.33-6-2-9 .27-1.88-.4-3.21-2-4-10.86-30.53-29.19-55.69-55-75.5q-122.235-70.875-246-139.5c-.47-1.41-1.47-2.07-3-2-15.58-8.46-31.25-16.96-47-25.5a216 216 0 0 1-18-6.5c-2.099-1.11-4.433-1.78-7-2a202 202 0 0 0-55-5q-7.554.135-15 1.5-.834.57-1 1.5c-6.304.49-12.304 1.82-18 4q-4.967-.285-8 3h-1q-4.346.945-8 3c-1.667.67-3.333 1.33-5 2q1.985-3.285 6-4.5c50.058-19.84 99.058-17.5 147 7 83.5 47.25 167.17 94.25 251 141 56.56 28.6 88.22 74.44 95 137.5" style="opacity:1"/><path fill="#fab372" d="M906.5 1085.5q-7.713 2.04-16 3 .166-.93 1-1.5a92 92 0 0 1 15-1.5" style="opacity:1"/><path fill="#faf9f9" d="M906.5 1085.5a202 202 0 0 1 55 5c1.938 1.66 4.272 2.33 7 2a216 216 0 0 0 18 6.5c15.75 8.54 31.42 17.04 47 25.5.47 1.41 1.47 2.07 3 2q123.765 68.625 246 139.5c25.81 19.81 44.14 44.97 55 75.5.16 1.65.83 2.99 2 4 .67 3 1.33 6 2 9 .39 3.34.89 6.67 1.5 10 .38.56.88.89 1.5 1v1c.07 2.93.73 5.59 2 8a26054 26054 0 0 1 1 320v3a275 275 0 0 1-8 38c-1.37 2.44-2.37 5.1-3 8-.67 2.33-1.33 4.67-2 7v1c-2.92 2.15-4.58 5.15-5 9-1.41.47-2.07 1.47-2 3q-2.265 2.52-3 6c-1.41.47-2.07 1.47-2 3-.84.34-1.17 1.01-1 2-1.41.47-2.07 1.47-2 3-1.41.47-2.07 1.47-2 3-15.63 20.31-34.63 36.64-57 49-1.53-.07-2.53.59-3 2-1.65.16-2.99.83-4 2-1.53-.07-2.53.59-3 2h-1c-1.53-.07-2.53.59-3 2a58.5 58.5 0 0 0-9 5c-1.53-.07-2.53.59-3 2-.99-.17-1.66.16-2 1-2.17.25-3.84 1.25-5 3-5.17 2.42-10.17 5.08-15 8-1.53-.07-2.53.59-3 2-2.17.25-3.84 1.25-5 3h-1c-1.53-.07-2.53.59-3 2-7.66 3.5-14.99 7.5-22 12-1.53-.07-2.53.59-3 2-3.83 1.75-7.5 3.75-11 6-1.53-.07-2.53.59-3 2-1.56.23-2.9.9-4 2-1.53-.07-2.53.59-3 2a77.7 77.7 0 0 0-13 7c-4.52 1.54-8.52 3.88-12 7-4.5 2.08-8.83 4.42-13 7-1.53-.07-2.53.59-3 2-1.56.23-2.9.9-4 2-1.53-.07-2.53.59-3 2-7 3.16-13.66 6.83-20 11-1.53-.07-2.53.59-3 2h-1c-1.53-.07-2.53.59-3 2-3.83 1.75-7.5 3.75-11 6-1.53-.07-2.53.59-3 2-1.56.23-2.9.9-4 2-1.53-.07-2.53.59-3 2h-1c-1.53-.07-2.53.59-3 2a88.5 88.5 0 0 0-11 6c-2.36 1.37-4.69 2.71-7 4-2.17.25-3.84 1.25-5 3-.67.33-1.33.67-2 1-1.53-.07-2.53.59-3 2q-3.48.735-6 3c-1.53-.07-2.53.59-3 2-1.65.16-2.99.83-4 2-1.53-.07-2.53.59-3 2h-1c-1.53-.07-2.53.59-3 2-5.34 2.67-10.676 5.34-16 8-4.587.52-8.587 2.19-12 5-5.031.46-9.698 1.8-14 4q-4.533.45-9 1.5-.834.57-1 1.5c-34.255 5.39-67.255 1.22-99-12.5a29279 29279 0 0 1-284-159c-44.075-28.95-69.242-69.78-75.5-122.5-.5-107.33-.667-214.67-.5-322v-2q2.283-7.155 3-15v-1c1.424-2.01 2.09-4.35 2-7-.268-1.6.066-2.93 1-4 1.424-2.01 2.09-4.35 2-7 1.431-1.28 2.098-2.95 2-5q10.998-29.01 33-51a6.58 6.58 0 0 0 3-3 85.8 85.8 0 0 1 11-11c1.527.07 2.527-.59 3-2 .79-.9 1.79-1.57 3-2 2.249-.58 3.915-1.91 5-4 1.527.07 2.527-.59 3-2 1-.33 1.667-1 2-2 6.008-3.34 12.008-6.67 18-10 4.843-1.92 9.177-4.58 13-8a294 294 0 0 0 35-19c4.509-2.42 8.842-5.09 13-8q8.984-2.985 16-9c2.516-.26 4.85-1.09 7-2.5q5.844-4.17 12-7.5c4.843-1.92 9.177-4.58 13-8 3.79-1.4 7.457-3.06 11-5 1.527.07 2.527-.59 3-2 2.353-.84 4.353-2.17 6-4a161 161 0 0 0 15-8c4.509-2.42 8.842-5.09 13-8a50.4 50.4 0 0 0 12-6 53.7 53.7 0 0 0 12-7 881 881 0 0 1 35-19c1.527.07 2.527-.59 3-2a63.6 63.6 0 0 0 9-6c.992.17 1.658-.16 2-1q6.233-1.86 11-6c.667 0 1-.33 1-1a170 170 0 0 0 22-11c1.667-.67 3.333-1.33 5-2q4.824.225 8-3h1q4.281-1.065 8-3c5.696-2.18 11.696-3.51 18-4q8.287-.96 16-3" style="opacity:1"/><path fill="#fbd0a8" d="M961.5 1090.5c2.567.22 4.901.89 7 2-2.728.33-5.062-.34-7-2" style="opacity:1"/><path fill="#fbb56f" d="M872.5 1092.5q-3.719 1.935-8 3 3.033-3.285 8-3" style="opacity:1"/><path fill="#fbdab9" d="M863.5 1095.5q-3.176 3.225-8 3 3.654-2.055 8-3" style="opacity:1"/><path fill="#fa9c41" d="M850.5 1100.5a170 170 0 0 1-22 11q5.602-4.065 12-7.5c3.061-2.03 6.395-3.2 10-3.5" style="opacity:1"/><path fill="#fa9d41" d="M827.5 1112.5q-4.767 4.14-11 6 4.767-4.14 11-6" style="opacity:1"/><path fill="#fa993b" d="M814.5 1119.5a63.6 63.6 0 0 1-9 6h-2q4.767-4.14 11-6" style="opacity:1"/><path fill="#fbc68e" d="M1033.5 1124.5c1.53-.07 2.53.59 3 2-1.53.07-2.53-.59-3-2" style="opacity:1"/><path fill="#fbcea3" d="M803.5 1125.5h2c-.473 1.41-1.473 2.07-3 2v-1c.667 0 1-.33 1-1" style="opacity:1"/><path fill="#fa993a" d="M802.5 1126.5v1a881 881 0 0 0-35 19c10.782-7.9 22.448-14.57 35-20" style="opacity:1"/><path fill="#fba14b" d="M767.5 1146.5a53.7 53.7 0 0 1-12 7c-.086-1 .248-1.83 1-2.5a39.8 39.8 0 0 1 11-4.5" style="opacity:1"/><path fill="#fa9d43" d="M755.5 1153.5a50.4 50.4 0 0 1-12 6q5.121-4.56 12-6" style="opacity:1"/><path fill="#fa9a3c" d="M743.5 1159.5a129 129 0 0 1-13 8c3.423-3.89 7.756-6.56 13-8" style="opacity:1"/><path fill="#fa9c3f" d="M730.5 1167.5a161 161 0 0 1-15 8c4.24-3.96 9.24-6.62 15-8" style="opacity:1"/><path fill="#fb9d46" d="M715.5 1175.5c-1.647 1.83-3.647 3.16-6 4h-2c2.337-1.9 5.004-3.23 8-4" style="opacity:1"/><path fill="#fbcea3" d="M707.5 1179.5h2c-.473 1.41-1.473 2.07-3 2v-1c.667 0 1-.33 1-1" style="opacity:1"/><path fill="#fa9d41" d="M706.5 1180.5v1a82 82 0 0 1-11 5q4.767-4.14 11-6" style="opacity:1"/><path fill="#fa9f47" d="M695.5 1186.5c-3.823 3.42-8.157 6.08-13 8 .437-1.57 1.437-2.74 3-3.5a67 67 0 0 1 10-4.5" style="opacity:1"/><path fill="#fa9c41" d="M682.5 1194.5a114 114 0 0 0-12 7.5 15.5 15.5 0 0 1-7 2.5c5.546-4.61 11.879-7.94 19-10" style="opacity:1"/><path fill="#fa993b" d="M663.5 1204.5q-7.016 6.015-16 9a58.1 58.1 0 0 1 16-9" style="opacity:1"/><path fill="#fa9e45" d="M647.5 1213.5a129 129 0 0 1-13 8c3.423-3.89 7.756-6.56 13-8" style="opacity:1"/><path fill="#fa9b3f" d="M634.5 1221.5a294 294 0 0 1-35 19 186 186 0 0 1 35-19" style="opacity:1"/><path fill="#fa9f46" d="M599.5 1240.5c-3.823 3.42-8.157 6.08-13 8 3.423-3.89 7.756-6.56 13-8" style="opacity:1"/><path fill="#fa9e45" d="M586.5 1248.5c-5.992 3.33-11.992 6.66-18 10 5.067-4.87 11.067-8.2 18-10" style="opacity:1"/><path fill="#fbcc9a" d="M566.5 1260.5c-.473 1.41-1.473 2.07-3 2 .473-1.41 1.473-2.07 3-2" style="opacity:1"/><path fill="#fcd5b0" d="M563.5 1262.5c-1.085 2.09-2.751 3.42-5 4 1.085-2.09 2.751-3.42 5-4" style="opacity:1"/><path fill="#fbc388" d="M555.5 1268.5c-.473 1.41-1.473 2.07-3 2 .473-1.41 1.473-2.07 3-2" style="opacity:1"/><path fill="#fbd0a4" d="M541.5 1281.5a6.58 6.58 0 0 1-3 3q0-3 3-3" style="opacity:1"/><path fill="#fab46d" d="M505.5 1335.5c.098 2.05-.569 3.72-2 5-.098-2.05.569-3.72 2-5" style="opacity:1"/><path fill="#fadec2" d="M1148.5 1381.5c.32-4.86-.01-9.53-1-14-4.36-15.18-14.53-23.18-30.5-24-4.36.27-8.53 1.27-12.5 3h-1c12.48-8.29 24.82-7.79 37 1.5 10.07 9.47 12.74 20.64 8 33.5" style="opacity:1"/><path fill="#fbc58f" d="M503.5 1340.5c.09 2.65-.576 4.99-2 7-.09-2.65.576-4.99 2-7" style="opacity:1"/><path fill="#fac289" d="M1337.5 1341.5c1.6.79 2.27 2.12 2 4-1.17-1.01-1.84-2.35-2-4" style="opacity:1"/><path fill="#fa7d02" d="M1147.5 1367.5c.48 6.56-.19 12.9-2 19a36487 36487 0 0 1-250.5 308c-6.773 8.61-14.606 15.94-23.5 22q-32.698 13.935-63-4.5a7209 7209 0 0 1-107.5-94.5 27.6 27.6 0 0 1-5-11c-.499-5.32-.666-10.66-.5-16q1.543-3.03 3-6c2.333-4.33 5.667-7.67 10-10q15.332-4.665 30 1.5c33.853 29.35 67.853 58.52 102 87.5q2.033-1.035 3-3 121.954-148.215 243.5-297c4.34-5.5 9.17-10.5 14.5-15 1.53.07 2.53-.59 3-2 3.97-1.73 8.14-2.73 12.5-3 15.97.82 26.14 8.82 30.5 24" style="opacity:1"/><path fill="#fba95e" d="M1103.5 1346.5h1c-.47 1.41-1.47 2.07-3 2 .33-1 1-1.67 2-2" style="opacity:1"/><path fill="#fbd1a7" d="M500.5 1351.5c.09 2.65-.576 4.99-2 7-.09-2.65.576-4.99 2-7" style="opacity:1"/><path fill="#fbddbf" d="M1341.5 1354.5c1.76 3.35 2.76 7.02 3 11-.62-.11-1.12-.44-1.5-1-.61-3.33-1.11-6.66-1.5-10" style="opacity:1"/><path fill="#fab771" d="M1344.5 1366.5c1.54 2.34 2.21 5 2 8-1.27-2.41-1.93-5.07-2-8" style="opacity:1"/><path fill="#fac995" d="M498.5 1359.5q-.717 7.845-3 15c.265-4.35.765-8.69 1.5-13 .278-.92.778-1.58 1.5-2" style="opacity:1"/><path fill="#fbc389" d="M1147.5 1367.5c.99 4.47 1.32 9.14 1 14-.25 2.17-1.25 3.84-3 5 1.81-6.1 2.48-12.44 2-19" style="opacity:1"/><path fill="#fa8f2c" d="M1349.5 1381.5c1.17 104.17 1.33 208.5.5 313-.18 5.25-1.02 10.25-2.5 15v-15c.69-104.18 1.35-208.51 2-313" style="opacity:1"/><path fill="#fadbbc" d="M843.5 1660.5q-.967 1.965-3 3a12748 12748 0 0 1-102-87.5q-14.668-6.165-30-1.5c4.537-4.4 10.037-6.06 16.5-5 5.601-.61 10.768.56 15.5 3.5a5882 5882 0 0 1 98 85c1.578 1.09 3.245 1.93 5 2.5" style="opacity:1"/><path fill="#fcd0a4" d="M698.5 1584.5q-1.457 2.97-3 6h-1q.183-4.185 4-6" style="opacity:1"/><path fill="#fac997" d="M694.5 1591.5c-1.619 8.52-.952 16.86 2 25-2.011-2.17-3.178-4.83-3.5-8a49.2 49.2 0 0 1 0-14q.348-1.86 1.5-3" style="opacity:1"/><path fill="#fa9b3d" d="M694.5 1590.5h1c-.166 5.34.001 10.68.5 16a27.6 27.6 0 0 0 5 11 7209 7209 0 0 0 107.5 94.5q30.302 18.435 63 4.5-34.248 19.26-67-3a12280 12280 0 0 1-101-88.5c-2.233-3-4.566-5.83-7-8.5-2.952-8.14-3.619-16.48-2-25z" style="opacity:1"/><path fill="#faa147" d="M498.5 1726.5c1.424 2.01 2.09 4.35 2 7-1.424-2.01-2.09-4.35-2-7" style="opacity:1"/><path fill="#faa144" d="M1347.5 1697.5v12c-.86 11.48-3.86 22.15-9 32 .65-1.94.98-3.94 1-6 3.58-12.57 6.25-25.24 8-38" style="opacity:1"/><path fill="#fabe80" d="M1339.5 1735.5c-.02 2.06-.35 4.06-1 6v1c-.67.33-1.33.67-2 1 .63-2.9 1.63-5.56 3-8" style="opacity:1"/><path fill="#faa043" d="M1338.5 1742.5c-.78 3.04-2.11 5.71-4 8 .67-2.33 1.33-4.67 2-7 .67-.33 1.33-.67 2-1" style="opacity:1"/><path fill="#fbae62" d="M1334.5 1751.5c-.91 3.49-2.58 6.49-5 9 .42-3.85 2.08-6.85 5-9" style="opacity:1"/><path fill="#fbbe81" d="M1329.5 1760.5c.07 1.53-.59 2.53-2 3-.07-1.53.59-2.53 2-3" style="opacity:1"/><path fill="#fbd7b3" d="M495.5 1376.5c-.167 107.33 0 214.67.5 322 6.258 52.72 31.425 93.55 75.5 122.5a29279 29279 0 0 0 284 159c31.745 13.72 64.745 17.89 99 12.5-6.412 1.81-13.079 2.98-20 3.5-9.327.5-18.661.67-28 .5-3.474-1.02-7.14-1.69-11-2-19.758-2.86-38.425-9.03-56-18.5a52877 52877 0 0 0-273-154q-47.424-33.645-66-88.5c.09-2.65-.576-4.99-2-7a1216 1216 0 0 1-4.5-28c-.667-105.33-.667-210.67 0-316q.286-3.315 1.5-6" style="opacity:1"/><path fill="#fcaa5a" d="M1327.5 1763.5q.165 4.08-3 6 .735-3.48 3-6" style="opacity:1"/><path fill="#fbb875" d="M1324.5 1769.5c.07 1.53-.59 2.53-2 3-.07-1.53.59-2.53 2-3" style="opacity:1"/><path fill="#fbb166" d="M1321.5 1774.5c.07 1.53-.59 2.53-2 3-.07-1.53.59-2.53 2-3" style="opacity:1"/><path fill="#fbad5e" d="M1319.5 1777.5c.07 1.53-.59 2.53-2 3-.07-1.53.59-2.53 2-3" style="opacity:1"/><path fill="#fbb267" d="M1260.5 1829.5c-.47 1.41-1.47 2.07-3 2 .47-1.41 1.47-2.07 3-2" style="opacity:1"/><path fill="#fbb065" d="M1253.5 1833.5c-.47 1.41-1.47 2.07-3 2 .47-1.41 1.47-2.07 3-2" style="opacity:1"/><path fill="#fbb874" d="M1249.5 1835.5c-.47 1.41-1.47 2.07-3 2 .47-1.41 1.47-2.07 3-2" style="opacity:1"/><path fill="#fbac5d" d="M1237.5 1842.5c-.47 1.41-1.47 2.07-3 2 .47-1.41 1.47-2.07 3-2" style="opacity:1"/><path fill="#fba450" d="M1232.5 1845.5c-.99 1.91-2.65 2.91-5 3 1.16-1.75 2.83-2.75 5-3" style="opacity:1"/><path fill="#fbb168" d="M1212.5 1856.5c-.47 1.41-1.47 2.07-3 2 .47-1.41 1.47-2.07 3-2" style="opacity:1"/><path fill="#fba04a" d="M1209.5 1858.5c-.99 1.91-2.65 2.91-5 3 1.16-1.75 2.83-2.75 5-3" style="opacity:1"/><path fill="#fbb26b" d="M1203.5 1861.5c-.47 1.41-1.47 2.07-3 2 .47-1.41 1.47-2.07 3-2" style="opacity:1"/><path fill="#fbb775" d="M1178.5 1875.5c-.47 1.41-1.47 2.07-3 2 .47-1.41 1.47-2.07 3-2" style="opacity:1"/><path fill="#fbb166" d="M1164.5 1883.5c-.47 1.41-1.47 2.07-3 2 .47-1.41 1.47-2.07 3-2" style="opacity:1"/><path fill="#fbaf68" d="M1157.5 1887.5c-.47 1.41-1.47 2.07-3 2 .47-1.41 1.47-2.07 3-2" style="opacity:1"/><path fill="#fc9d47" d="M1141.5 1896.5c-.79 1.29-1.79 2.46-3 3.5a29.6 29.6 0 0 1-9 3.5c3.48-3.12 7.48-5.46 12-7" style="opacity:1"/><path fill="#fbb166" d="M1116.5 1910.5c-.47 1.41-1.47 2.07-3 2 .47-1.41 1.47-2.07 3-2" style="opacity:1"/><path fill="#fbad61" d="M1109.5 1914.5c-.47 1.41-1.47 2.07-3 2 .47-1.41 1.47-2.07 3-2" style="opacity:1"/><path fill="#fbab5f" d="M1086.5 1927.5c-.47 1.41-1.47 2.07-3 2 .47-1.41 1.47-2.07 3-2" style="opacity:1"/><path fill="#fbb974" d="M1082.5 1929.5c-.47 1.41-1.47 2.07-3 2 .47-1.41 1.47-2.07 3-2" style="opacity:1"/><path fill="#fbb168" d="M1068.5 1937.5c-.47 1.41-1.47 2.07-3 2 .47-1.41 1.47-2.07 3-2" style="opacity:1"/><path fill="#fbaa5d" d="M1061.5 1941.5c-.47 1.41-1.47 2.07-3 2 .47-1.41 1.47-2.07 3-2" style="opacity:1"/><path fill="#fbbc7d" d="M1057.5 1943.5c-.47 1.41-1.47 2.07-3 2 .47-1.41 1.47-2.07 3-2" style="opacity:1"/><path fill="#fca04b" d="M1043.5 1951.5c-1.36 3.02-3.69 4.35-7 4 2.31-1.29 4.64-2.63 7-4" style="opacity:1"/><path fill="#fcae66" d="M1036.5 1955.5c-.99 1.91-2.65 2.91-5 3 1.16-1.75 2.83-2.75 5-3" style="opacity:1"/><path fill="#fbb064" d="M1029.5 1959.5c-.47 1.41-1.47 2.07-3 2 .47-1.41 1.47-2.07 3-2" style="opacity:1"/><path fill="#fbac63" d="M1020.5 1964.5c-.47 1.41-1.47 2.07-3 2 .47-1.41 1.47-2.07 3-2" style="opacity:1"/><path fill="#fbaa5e" d="M1013.5 1968.5c-.47 1.41-1.47 2.07-3 2 .47-1.41 1.47-2.07 3-2" style="opacity:1"/><path fill="#fbba81" d="M1009.5 1970.5c-.47 1.41-1.47 2.07-3 2 .47-1.41 1.47-2.07 3-2" style="opacity:1"/><path fill="#fae1c7" d="M990.5 1980.5a65.7 65.7 0 0 1-12 5c3.413-2.81 7.413-4.48 12-5" style="opacity:1"/><path fill="#faddbc" d="M978.5 1985.5c-3.13 1.63-6.463 2.96-10 4h-4c4.302-2.2 8.969-3.54 14-4" style="opacity:1"/><path fill="#faac63" d="M964.5 1989.5h4c-1.43 1.04-3.097 1.7-5 2 .333-.67.667-1.33 1-2" style="opacity:1"/><path fill="#fad8b5" d="M964.5 1989.5c-.333.67-.667 1.33-1 2-2.955.66-5.955.99-9 1q.166-.93 1-1.5a69 69 0 0 1 9-1.5" style="opacity:1"/><path fill="#faa34f" d="M895.5 1994.5c3.86.31 7.526.98 11 2-3.018.16-6.018 0-9-.5q-1.374-.42-2-1.5" style="opacity:1"/></svg>